<mxfile host="app.diagrams.net" modified="2024-04-23T09:27:41.178Z" agent="Mozilla/5.0 (Windows NT 10.0; Win64; x64) AppleWebKit/537.36 (KHTML, like Gecko) Chrome/123.0.0.0 Safari/537.36" version="24.2.8" etag="abeQ-8vP2yxpekQKgRW3" type="github">
  <diagram name="第 1 页" id="2ByO4y2v6TZgudP4-Kv2">
    <mxGraphModel>
      <root>
        <mxCell id="0" />
        <mxCell id="1" parent="0" />
      </root>
    </mxGraphModel>
  </diagram>
</mxfile>
